PathFileType	4	(X/Y/Z)	D:\TRACE\v60_Jaco2_6-2-23\JustBodyDRS_Motion3_5-platform.trc
DataRate	CameraRate	NumFrames	NumMarkers	Units	OrigDataRate	OrigDataStartFrame	OrigNumFrames
100.00	100.00	      24	5	mm	100.00	3501	      7000
Frame#	Time	Left_Front			Right_Front			Left_Aft			Right_Aft			Post			
		X1	Y1	Z1	X2	Y2	Z2	X3	Y3	Z3	X4	Y4	Z4	X5	Y5	Z5	

3501	35.000	-751.41254	12.15218	-650.17999	819.06055	10.02380	-628.20178	-682.58789	9.26475	483.96713	731.84839	7.21343	589.51959	44.10398	1310.63794	-958.09949	
3502	35.010	-751.55359	12.53642	-650.17212	818.85895	10.79383	-627.26849	-682.87848	8.89133	484.11221	731.35126	6.50360	589.72205	43.90631	1311.46960	-957.00934	
3503	35.020	-751.86316	13.01841	-650.01721	818.47327	11.44536	-627.14435	-683.06598	8.41605	484.32639	731.02576	5.97689	589.95105	43.47988	1312.32861	-955.86945	
3504	35.030	-752.28662	13.95377	-649.76196	818.26031	12.13434	-626.89569	-683.57855	8.01124	484.37888	730.92969	5.54280	589.99695	43.01157	1313.17371	-955.16333	
3505	35.040	-752.80981	14.57942	-649.36859	817.95380	12.78252	-626.79883	-683.83777	7.58006	484.40411	730.63147	5.05946	590.20270	42.45719	1314.00085	-954.03857	
3506	35.050	-752.98889	15.04455	-649.07684	817.77673	13.52492	-626.57220	-683.89099	6.93632	484.65887	730.30188	4.35582	590.45972	42.60997	1315.15332	-952.97900	
3507	35.060	-753.04260	15.50889	-648.98029	817.56921	14.26243	-626.44415	-684.24353	6.52434	484.86996	730.22894	3.94561	590.47290	42.05884	1315.92517	-951.58276	
3508	35.070	-752.99042	16.51123	-648.71283	817.20856	14.86920	-626.20142	-684.51086	6.25445	484.81952	729.86218	3.34596	590.67981	41.75888	1317.10339	-950.25812	
3509	35.080	-753.38611	17.44215	-648.78583	816.96741	15.34557	-626.10413	-684.91675	5.75619	485.08899	729.43994	2.81312	590.80951	41.63291	1317.75391	-948.56787	
3510	35.090	-753.50079	17.57500	-648.73773	816.70313	16.02875	-625.96399	-685.20532	5.36418	485.31766	728.90753	2.04002	591.03510	40.97671	1318.85913	-946.86768	
3511	35.100	-754.15179	18.29112	-648.16937	816.36560	16.86821	-625.71082	-685.51447	4.92410	485.56827	728.82935	1.74160	591.20770	40.72618	1319.69531	-944.89929	
3512	35.110	-754.47534	18.74616	-648.17804	815.94543	17.51626	-625.78760	-685.89911	4.41924	485.69290	728.65070	1.39429	591.35077	40.53360	1320.59216	-943.33203	
3513	35.120	-755.07776	19.57469	-648.12952	815.64838	18.07635	-625.42017	-686.12970	3.89315	485.84109	728.33429	0.97853	591.32880	40.09600	1321.77271	-941.21906	
3514	35.130	-755.31378	20.26039	-648.08490	815.22449	18.51073	-625.48932	-686.44641	3.51768	485.87381	727.76093	0.25066	591.36926	39.87474	1322.52283	-939.68872	
3515	35.140	-755.56842	21.24138	-648.08533	814.66882	19.13331	-625.30426	-686.97321	3.06184	485.98544	727.31860	-0.38789	591.71027	39.09621	1323.49231	-937.68341	
3516	35.150	-756.18909	21.65008	-648.07275	814.39166	19.79592	-625.01300	-687.37665	2.69615	486.13507	727.12225	-0.67583	591.91455	39.12363	1324.21472	-936.31567	
3517	35.160	-756.38477	22.05997	-647.75275	814.00012	20.55409	-624.86023	-687.65216	2.26031	486.31427	726.72241	-1.24376	592.06543	38.73877	1325.11816	-935.32306	
3518	35.170	-756.68140	22.71609	-647.46295	813.66602	21.18110	-624.73718	-688.02051	1.89343	486.46539	726.50031	-1.73856	592.32019	38.13453	1326.36511	-934.39856	
3519	35.180	-757.23090	23.39817	-647.10297	813.31689	21.85845	-624.44745	-688.34552	1.24466	486.56070	725.88708	-2.38386	592.31500	37.79349	1327.39917	-933.68677	
3520	35.190	-757.57465	23.82471	-646.86316	812.93408	22.40753	-624.40393	-688.66797	0.66168	486.57538	725.46576	-2.93411	592.49347	37.41203	1328.01965	-932.70166	
3521	35.200	-758.26166	24.52311	-646.57507	812.61084	23.04537	-624.23865	-689.19421	0.23222	486.80951	724.99463	-3.44014	592.94855	36.91090	1328.91736	-931.24463	
3522	35.210	-758.54688	25.40508	-646.79706	812.04688	23.65307	-624.07300	-689.80054	-0.06459	486.96622	724.69861	-3.80691	592.49207	36.63248	1329.79419	-930.38666	
3523	35.220	-758.89063	25.95669	-646.82593	811.41278	24.26294	-624.04321	-690.26935	-0.16768	487.03867	724.13269	-4.56807	592.83789	36.00639	1331.00427	-928.97253	
3524	35.230	-759.29663	26.66311	-646.80145	811.03058	24.97597	-623.85065	-690.76788	-0.55307	487.12738	723.80591	-4.85509	592.92749	35.53660	1331.82751	-927.60437	
